<svg width="29" height="45" viewBox="0 0 29 45" fill="none" xmlns="http://www.w3.org/2000/svg">
<path fill-rule="evenodd" clip-rule="evenodd" d="M9.04188 30.5445C7.02506 32.0938 5.71521 34.5645 5.71521 37.3568C5.71521 38.3232 5.90622 39.7732 6.39352 40.9362C6.89693 42.1378 7.5184 42.6317 8.21519 42.6317C8.98966 42.6317 9.66253 41.9821 9.66253 41.1246C9.66253 40.7455 9.51687 40.3754 9.23515 39.7304C9.22757 39.7128 9.21975 39.6951 9.21194 39.6771C8.96314 39.1083 8.60989 38.3008 8.60989 37.3568C8.60989 36.313 9.08025 35.2339 9.60166 34.387C10.1338 33.5224 10.8396 32.7055 11.5301 32.2014L12.9266 34.1145C12.5473 34.3912 12.0359 34.9505 11.6185 35.6286C11.1903 36.3242 10.9783 36.9542 10.9783 37.3568C10.9783 37.761 11.1287 38.1483 11.4057 38.7826C11.4165 38.8071 11.4274 38.832 11.4385 38.8576C11.6829 39.4152 12.0309 40.2096 12.0309 41.1246C12.0309 43.2398 10.3475 45.0001 8.21519 45.0001C6.05389 45.0001 4.83309 43.3409 4.20902 41.8514C3.56871 40.3232 3.34679 38.5438 3.34679 37.3568C3.34679 33.8098 5.0138 30.6521 7.59905 28.6662L9.04188 30.5445ZM22.2941 37.3568C22.2941 34.5645 20.9843 32.0938 18.9674 30.5445L20.4103 28.6662C22.9955 30.6521 24.6625 33.8098 24.6625 37.3568C24.6625 38.4539 24.4141 40.2276 23.7706 41.7677C23.1569 43.236 21.9479 45.0001 19.7941 45.0001C17.6618 45.0001 15.9784 43.2398 15.9784 41.1246C15.9784 40.2289 16.3244 39.4304 16.5667 38.8713C16.5785 38.8439 16.5903 38.817 16.6016 38.7906C16.88 38.1455 17.031 37.7507 17.031 37.3568C17.031 36.9542 16.819 36.3242 16.3908 35.6286C15.9734 34.9505 15.4621 34.3912 15.0828 34.1145L16.4792 32.2014C17.1697 32.7055 17.8755 33.5224 18.4077 34.387C18.9291 35.2339 19.3994 36.313 19.3994 37.3568C19.3994 38.2875 19.047 39.1026 18.7996 39.6748C18.7917 39.6932 18.7839 39.7113 18.7761 39.7292C18.4921 40.3872 18.3468 40.761 18.3468 41.1246C18.3468 41.9821 19.0197 42.6317 19.7941 42.6317C20.4182 42.6317 21.0512 42.1324 21.5852 40.8544C22.0894 39.648 22.2941 38.1923 22.2941 37.3568Z" fill="white"/>
<path fill-rule="evenodd" clip-rule="evenodd" d="M14.0046 11.8421C16.6206 11.8421 18.7414 9.72128 18.7414 7.10525C18.7414 4.48916 16.6206 2.36842 14.0046 2.36842C11.3886 2.36842 9.26778 4.48916 9.26778 7.10525C9.26778 9.72128 11.3886 11.8421 14.0046 11.8421ZM14.0046 14.2105C17.9287 14.2105 21.1099 11.0294 21.1099 7.10525C21.1099 3.18112 17.9287 0 14.0046 0C10.0805 0 6.89937 3.18112 6.89937 7.10525C6.89937 11.0294 10.0805 14.2105 14.0046 14.2105Z" fill="white"/>
<path fill-rule="evenodd" clip-rule="evenodd" d="M2.51892 14.3581L2.53242 14.3872C4.08752 17.7195 5.85803 19.465 7.84335 20.3277L9.26772 20.9468V28.421C9.26772 28.5618 9.34824 29.0349 9.71014 29.5953C10.0468 30.1165 10.5802 30.6376 11.3813 30.9793C11.607 31.0756 11.8608 31.1964 12.0758 31.2987C12.1183 31.319 12.1593 31.3384 12.1983 31.3568C12.4614 31.4814 12.7054 31.594 12.9483 31.6927C13.464 31.9019 13.8019 31.9736 14.0045 31.9736C14.2073 31.9736 14.5453 31.9019 15.0609 31.6927C15.3039 31.594 15.5478 31.4814 15.8109 31.3568C15.8499 31.3384 15.8909 31.319 15.9333 31.2987C16.1484 31.1964 16.4022 31.0756 16.6279 30.9793C17.429 30.6376 17.9624 30.1165 18.299 29.5953C18.661 29.0349 18.7414 28.5618 18.7414 28.421V20.9468L20.1659 20.3277C22.1511 19.465 23.9217 17.7195 25.4768 14.3872L25.4903 14.3581L25.5046 14.3295C25.5465 14.2458 25.6489 13.9473 25.6402 13.6147C25.633 13.3376 25.5572 13.1198 25.3561 12.9187C25.1784 12.741 25.0415 12.6587 24.9553 12.6188C24.871 12.5798 24.7979 12.5637 24.7245 12.5592C24.5614 12.5493 24.3013 12.5941 23.9367 12.7746C23.9481 12.7691 23.9545 12.7659 23.9551 12.7668C23.959 12.772 23.7854 12.9063 23.3138 13.469C23.2224 13.5782 23.1208 13.702 23.0102 13.8365C22.599 14.3371 22.0649 14.9872 21.4758 15.5931C19.8959 17.2182 17.5462 18.9414 14.0045 18.9414C10.4631 18.9414 8.11335 17.2182 6.53338 15.5931C5.94436 14.9872 5.41016 14.3371 4.99888 13.8365C4.8884 13.702 4.78679 13.5782 4.69525 13.469C4.22382 12.9063 4.05022 12.772 4.05401 12.7668C4.0546 12.766 4.05851 12.7677 4.06561 12.7713C3.70466 12.5937 3.44686 12.5493 3.28474 12.5592C3.21132 12.5637 3.13826 12.5798 3.05394 12.6188C2.96773 12.6587 2.83084 12.741 2.65297 12.9187C2.45189 13.1198 2.3761 13.3376 2.369 13.6147C2.36035 13.9473 2.46267 14.2458 2.50459 14.3295L2.51892 14.3581ZM27.6229 15.3888C28.0177 14.5992 28.4519 12.6651 27.0308 11.244C25.6098 9.82298 24.0703 10.0659 22.8861 10.6519C22.3395 10.9225 21.7927 11.5874 21.1425 12.3783C19.68 14.1571 17.6935 16.573 14.0045 16.573C10.3157 16.573 8.32923 14.1571 6.86674 12.3783C6.21637 11.5874 5.66974 10.9225 5.12299 10.6519C3.93878 10.0659 2.39931 9.82298 0.978263 11.244C-0.442786 12.6651 -0.00853699 14.5992 0.386159 15.3888C2.10208 19.0655 4.22678 21.3384 6.8993 22.4999V28.421C6.8993 29.7494 7.90505 32.0714 10.4519 33.1578C10.6286 33.2331 10.8274 33.3276 11.0431 33.4302C11.8758 33.826 12.9611 34.342 14.0045 34.342C15.048 34.342 16.1334 33.826 16.966 33.4302C17.1818 33.3276 17.3805 33.2331 17.5572 33.1578C20.1042 32.0714 21.1098 29.7494 21.1098 28.421V22.4999C23.7824 21.3384 25.9071 19.0655 27.6229 15.3888Z" fill="white"/>
<path fill-rule="evenodd" clip-rule="evenodd" d="M20.5178 27.2368H7.49151V24.8684H20.5178V27.2368Z" fill="white"/>
</svg>
