<svg width="35" height="50" viewBox="0 0 35 50" fill="none" xmlns="http://www.w3.org/2000/svg">
<path fill-rule="evenodd" clip-rule="evenodd" d="M3.74422 0.0225094C1.6746 0.0241957 -0.00169747 1.70328 1.29e-06 3.77283L0.0255709 35.0001C0.0272696 37.0695 1.70633 38.7459 3.77594 38.7442L9.70911 38.7393C10.5714 38.7386 11.2698 38.039 11.2691 37.1767C11.2685 36.3144 11.967 35.6147 12.8292 35.6141L22.1974 35.6064C23.0597 35.6057 23.7593 36.3041 23.76 37.1665C23.7607 38.0287 24.4603 38.7272 25.3227 38.7266L31.2559 38.7217C33.3253 38.72 35.0018 37.0409 35 34.9713L34.9744 3.74419C34.9728 1.67464 33.2936 -0.00169747 31.2241 1.28997e-06L3.74422 0.0225094ZM28.73 4.99836L6.24639 5.01677L6.26487 27.5003L28.7484 27.4819L28.73 4.99836ZM7.51771 31.8711C7.51708 31.1812 8.07593 30.6215 8.7658 30.621L13.7619 30.6169C14.4518 30.6164 15.0115 31.1751 15.012 31.865C15.0126 32.5548 14.4539 33.1146 13.764 33.1151L8.76779 33.1192C8.07792 33.1197 7.51821 32.561 7.51771 31.8711ZM21.2567 30.6108C20.5668 30.6114 20.008 31.171 20.0086 31.8609C20.0091 32.5507 20.5688 33.1096 21.2587 33.1089L26.2549 33.1048C26.9448 33.1043 27.5035 32.5446 27.5029 31.8547C27.5024 31.1649 26.9426 30.6061 26.2528 30.6066L21.2567 30.6108Z" fill="white"/>
<path d="M22.4952 17.8129C22.4974 20.4777 20.3006 22.5731 17.5027 22.5754C14.7047 22.5778 12.5047 20.4858 12.5025 17.8211C12.5003 15.1564 17.4918 9.25188 17.4918 9.25188C17.4918 9.25188 22.4932 15.3386 22.4952 17.8129Z" fill="white"/>
<path fill-rule="evenodd" clip-rule="evenodd" d="M22.5103 36.2307L12.5176 36.2389L12.5268 47.4807L22.5195 47.4725L22.5103 36.2307ZM10.0174 33.7428L10.0308 49.9809L25.0198 49.9687L25.0064 33.7305L10.0174 33.7428Z" fill="white"/>
<path d="M20.0174 42.4779C20.0185 43.8577 18.901 44.977 17.5212 44.9781C16.1416 44.9792 15.0222 43.8618 15.0211 42.4821C15.0199 41.1023 16.1375 39.983 17.5172 39.9818C18.8969 39.9806 20.0163 41.0982 20.0174 42.4779Z" fill="white"/>
</svg>
