<svg width="23" height="20" viewBox="0 0 23 20" fill="none" xmlns="http://www.w3.org/2000/svg">
<g opacity="0.2">
<path d="M11.4999 15.5138C8.77404 15.5138 6.56748 13.2368 6.36443 10.3513L2.5946 7.20701C2.09903 7.87798 1.64298 8.58734 1.27498 9.36303C1.19277 9.53853 1.14994 9.73243 1.14994 9.92909C1.14994 10.1257 1.19277 10.3196 1.27498 10.4951C3.22387 14.5989 7.0821 17.3755 11.4999 17.3755C12.467 17.3755 13.3999 17.2204 14.2991 16.9698L12.4343 15.4126C12.1263 15.4768 11.8135 15.5107 11.4999 15.5138ZM22.7778 17.7672L18.8049 14.4535C20.0117 13.3558 21.0043 12.0102 21.7248 10.4948C21.807 10.3193 21.8498 10.1254 21.8498 9.9287C21.8498 9.73205 21.807 9.53815 21.7248 9.36264C19.7759 5.25887 15.9177 2.4823 11.4999 2.4823C9.64965 2.48472 7.82946 2.98742 6.20559 3.94447L1.63364 0.130805C1.57402 0.0807374 1.50584 0.0438391 1.433 0.0222186C1.36016 0.000598164 1.28409 -0.00532064 1.20913 0.00480043C1.13418 0.0149215 1.0618 0.0408841 0.996143 0.0812045C0.930486 0.121525 0.872834 0.175413 0.826482 0.239789L0.121031 1.21987C0.0274498 1.34979 -0.0144835 1.51451 0.00445412 1.67779C0.0233917 1.84108 0.101649 1.98956 0.222015 2.09058L21.3661 19.727C21.4258 19.7771 21.4939 19.8139 21.5668 19.8356C21.6396 19.8572 21.7157 19.8631 21.7906 19.853C21.8656 19.8429 21.938 19.8169 22.0036 19.7766C22.0693 19.7363 22.1269 19.6824 22.1733 19.618L22.8791 18.6379C22.9726 18.5079 23.0145 18.3432 22.9955 18.1799C22.9765 18.0166 22.8982 17.8682 22.7778 17.7672ZM16.1753 12.2598L14.763 11.0816C14.8819 10.7106 14.945 10.3214 14.9499 9.92889C14.9569 9.35421 14.8389 8.78576 14.6054 8.26921C14.372 7.75266 14.0295 7.3024 13.6055 6.95461C13.1815 6.60681 12.6879 6.37117 12.1643 6.26662C11.6406 6.16207 11.1015 6.19151 10.5903 6.35259C10.807 6.6695 10.9242 7.05283 10.9249 7.4467C10.9195 7.57776 10.901 7.70781 10.8695 7.83454L8.22419 5.6281C9.14311 4.79936 10.3024 4.3449 11.4999 4.34395C12.1796 4.34354 12.8527 4.48772 13.4807 4.76825C14.1087 5.04877 14.6794 5.46014 15.16 5.97883C15.6406 6.49752 16.0218 7.11336 16.2817 7.79115C16.5417 8.46893 16.6752 9.19535 16.6749 9.92889C16.6749 10.7678 16.4848 11.5497 16.1753 12.2602V12.2598Z" fill="black"/>
</g>
</svg>
