<svg width="45" height="41" viewBox="0 0 45 41" fill="none" xmlns="http://www.w3.org/2000/svg">
<path fill-rule="evenodd" clip-rule="evenodd" d="M8.22338 28.5969C-5.40357 22.8493 -0.0256517 3.44938 9.43378 0.244021C13.358 -1.08568 17.688 3.32571 17.6603 6.06472C17.6483 7.24902 17.0372 8.40372 16.4005 9.60684C15.5647 11.1863 14.6846 12.8491 15.0583 14.7715C15.7167 18.1583 16.4541 23.8726 14.5541 26.5851C12.6539 29.2976 10.7431 29.6596 8.22338 28.5969ZM9.19822 26.2855C10.18 26.6995 10.6622 26.6723 10.9268 26.5961C11.1983 26.5179 11.7284 26.2466 12.4994 25.1459C12.9669 24.4784 13.2852 23.0699 13.2571 20.9645C13.2309 18.9876 12.9122 16.8779 12.5959 15.2502C12.0886 12.6409 13.1303 10.4611 13.8736 9.02335C14.0015 8.77562 14.1184 8.55499 14.2261 8.35155C14.4743 7.88269 14.6738 7.50565 14.8502 7.10139C15.0853 6.56267 15.1497 6.24345 15.1519 6.03938C15.1525 5.97428 15.1085 5.64252 14.7832 5.0964C14.4777 4.58364 14.0138 4.0374 13.4443 3.57331C12.2361 2.58881 11.067 2.3393 10.2389 2.61992C6.71434 3.81426 3.40082 8.41326 2.65625 13.81C1.9419 18.9876 3.71126 23.9712 9.19822 26.2855Z" fill="white"/>
<path fill-rule="evenodd" clip-rule="evenodd" d="M35.5661 0.244021C45.0257 3.44938 50.4036 22.8493 36.7767 28.5969C34.2568 29.6596 32.346 29.2976 30.446 26.5851C28.546 23.8726 29.2834 18.1583 29.9416 14.7715C30.3153 12.8491 29.4354 11.1863 28.5994 9.60684C27.9627 8.40372 27.3516 7.24902 27.3397 6.06472C27.312 3.32571 31.6421 -1.08568 35.5661 0.244021ZM34.0732 26.5961C34.3378 26.6723 34.8201 26.6995 35.8017 26.2855C41.2887 23.9712 43.058 18.9876 42.3437 13.81C41.5992 8.41326 38.2857 3.81426 34.7611 2.61992C33.9329 2.3393 32.7638 2.58881 31.5557 3.57331C30.9861 4.0374 30.5222 4.58364 30.2168 5.0964C29.8916 5.64252 29.8474 5.97428 29.8482 6.03938C29.8502 6.24345 29.9148 6.56267 30.1498 7.10139C30.3262 7.50565 30.5258 7.88269 30.7739 8.35155C30.8816 8.55499 30.9984 8.77562 31.1264 9.02335C31.8696 10.4611 32.9113 12.6409 32.4042 15.2502C32.0877 16.8779 31.7691 18.9876 31.7428 20.9645C31.7148 23.0699 32.0332 24.4784 32.5006 25.1459C33.2717 26.2466 33.8017 26.5179 34.0732 26.5961Z" fill="white"/>
<path d="M28.38 18.5957C28.4661 19.847 28.4668 19.847 28.4676 19.8468L28.4691 19.8467L28.4718 19.8466L28.4767 19.8462L28.4836 19.8456L28.4873 19.8452C28.4851 19.8455 28.4745 19.8467 28.4565 19.8496C28.4205 19.8554 28.3574 19.8674 28.2767 19.8904C28.1122 19.9369 27.8955 20.0223 27.6833 20.1735C27.3199 20.4322 26.7856 21.0069 26.7856 22.4571V40.6019C26.7856 40.602 26.7856 40.6022 25.5313 40.6022C24.277 40.6022 24.277 40.6015 24.277 40.6014V22.4571C24.277 20.2417 25.167 18.8857 26.228 18.1301C26.728 17.7741 27.2234 17.5813 27.5931 17.4767C27.7795 17.4239 27.939 17.3921 28.0587 17.3727C28.1186 17.3631 28.1693 17.3566 28.2088 17.3522C28.2286 17.3499 28.2458 17.3483 28.26 17.347L28.2792 17.3454L28.2872 17.3448L28.2907 17.3445L28.2923 17.3444C28.2932 17.3444 28.294 17.3443 28.38 18.5957Z" fill="white"/>
<path d="M16.62 18.5957C16.534 19.847 16.5331 19.847 16.5323 19.8468L16.5309 19.8467L16.5281 19.8466L16.5233 19.8462L16.5163 19.8456C16.5139 19.8453 16.5126 19.8452 16.5124 19.8452C16.5145 19.8455 16.5256 19.8467 16.5434 19.8496C16.5795 19.8554 16.6426 19.8674 16.7232 19.8904C16.8877 19.9369 17.1044 20.0223 17.3168 20.1735C17.6801 20.4322 18.2145 21.0069 18.2145 22.4571V40.6019C18.2145 40.602 18.2145 40.6022 19.4688 40.6022C20.7231 40.6022 20.7231 40.6015 20.7231 40.6014V22.4571C20.7231 20.2417 19.8329 18.8857 18.7719 18.1301C18.272 17.7741 17.7766 17.5813 17.4068 17.4767C17.2206 17.4239 17.061 17.3921 16.9414 17.3727C16.8813 17.3631 16.8307 17.3566 16.7911 17.3522C16.7713 17.3499 16.7542 17.3483 16.7399 17.347L16.7207 17.3454L16.7128 17.3448L16.7093 17.3445L16.7076 17.3444C16.7068 17.3444 16.7059 17.3443 16.62 18.5957Z" fill="white"/>
</svg>
