<svg width="10" height="11" viewBox="0 0 10 11" fill="none" xmlns="http://www.w3.org/2000/svg">
<path d="M4.28547 10.7781C0.670927 6.25262 0 5.78817 0 4.125C0 1.84682 2.13843 0 4.77634 0C7.41425 0 9.55268 1.84682 9.55268 4.125C9.55268 5.78817 8.88176 6.25262 5.26721 10.7781C5.03001 11.074 4.52265 11.074 4.28547 10.7781ZM4.77634 5.84375C5.87547 5.84375 6.76648 5.07424 6.76648 4.125C6.76648 3.17576 5.87547 2.40625 4.77634 2.40625C3.67721 2.40625 2.7862 3.17576 2.7862 4.125C2.7862 5.07424 3.67721 5.84375 4.77634 5.84375Z" fill="#088F8F"/>
</svg>
