<svg width="150" height="118" viewBox="0 0 150 118" fill="none" xmlns="http://www.w3.org/2000/svg">
<g clip-path="url(#clip0_1_711)">
<path d="M136.539 107.51C133.664 110.589 130.369 113.247 126.752 115.407C126.669 115.458 126.585 115.505 126.5 115.555L120.644 110.372C120.706 110.315 120.774 110.251 120.847 110.18C125.21 106.037 146.871 77.0703 148.314 70.0164C148.214 70.604 149.616 93.65 136.539 107.51Z" fill="#F0F0F0"/>
<path d="M127.882 116.407C127.771 116.433 127.658 116.458 127.545 116.48L123.152 112.592C123.238 112.562 123.338 112.526 123.453 112.487C125.338 111.82 130.952 109.805 136.539 107.51C142.542 105.043 148.516 102.256 149.801 100.47C149.525 100.885 141.035 113.465 127.882 116.407Z" fill="#F0F0F0"/>
<path d="M136.458 30.8432H135.832V13.7048C135.832 12.4022 135.576 11.1123 135.077 9.90882C134.579 8.70536 133.848 7.61186 132.927 6.69077C132.006 5.76968 130.913 5.03903 129.709 4.54054C128.506 4.04205 127.216 3.78548 125.913 3.78548H89.6029C88.3003 3.78547 87.0104 4.04204 85.8069 4.54053C84.6035 5.03902 83.51 5.76966 82.5889 6.69075C81.6678 7.61184 80.9372 8.70533 80.4387 9.90879C79.9402 11.1123 79.6836 12.4021 79.6836 13.7047V107.728C79.6836 109.03 79.9402 110.32 80.4386 111.524C80.9371 112.727 81.6678 113.821 82.5889 114.742C83.51 115.663 84.6035 116.394 85.8069 116.892C87.0104 117.391 88.3002 117.647 89.6029 117.647H125.913C127.216 117.647 128.506 117.391 129.709 116.892C130.912 116.394 132.006 115.663 132.927 114.742C133.848 113.821 134.579 112.727 135.077 111.524C135.576 110.32 135.832 109.03 135.832 107.728V43.0427H136.458V30.8432Z" fill="#3F3D56"/>
<path d="M133.721 13.7729V107.659C133.721 108.632 133.529 109.595 133.157 110.494C132.785 111.393 132.239 112.209 131.551 112.897C130.863 113.585 130.046 114.13 129.147 114.502C128.248 114.874 127.285 115.066 126.312 115.065H89.8272C88.8546 115.065 87.8915 114.874 86.9929 114.502C86.0943 114.129 85.2778 113.584 84.5901 112.896C83.9023 112.208 83.3568 111.392 82.9846 110.493C82.6125 109.595 82.421 108.632 82.421 107.659V13.7729C82.421 12.8003 82.6125 11.8372 82.9846 10.9386C83.3568 10.0401 83.9023 9.22358 84.5901 8.53585C85.2778 7.84812 86.0943 7.30259 86.9929 6.93043C87.8915 6.55826 88.8546 6.36675 89.8272 6.36682H94.2548C94.0374 6.90122 93.9548 7.48085 94.014 8.05471C94.0732 8.62856 94.2725 9.17908 94.5944 9.65783C94.9163 10.1366 95.3509 10.5289 95.86 10.8003C96.3691 11.0717 96.9371 11.2138 97.514 11.2142H118.315C118.892 11.2147 119.461 11.0732 119.97 10.8021C120.48 10.531 120.915 10.1386 121.237 9.65954C121.559 9.18051 121.759 8.62957 121.817 8.05533C121.876 7.48109 121.793 6.90119 121.574 6.36682H126.312C127.285 6.36647 128.248 6.55777 129.147 6.92981C130.046 7.30184 130.863 7.84731 131.551 8.53507C132.239 9.22282 132.785 10.0394 133.157 10.9381C133.529 11.8368 133.721 12.8001 133.721 13.7729Z" fill="white"/>
<path d="M122.372 62.5612H90.3025C89.7408 62.5606 89.2023 62.3371 88.8051 61.94C88.4079 61.5428 88.1845 61.0043 88.1838 60.4425V59.388C88.1845 58.8263 88.4079 58.2878 88.8051 57.8906C89.2023 57.4934 89.7408 57.27 90.3025 57.2693H122.372C122.933 57.27 123.472 57.4934 123.869 57.8906C124.266 58.2878 124.49 58.8263 124.49 59.388V60.4425C124.49 61.0043 124.266 61.5428 123.869 61.94C123.472 62.3371 122.933 62.5606 122.372 62.5612Z" fill="#F0F0F0"/>
<path d="M122.372 71.6517H90.3025C89.7408 71.6511 89.2023 71.4277 88.8051 71.0305C88.4079 70.6333 88.1845 70.0948 88.1838 69.5331V68.4785C88.1845 67.9168 88.4079 67.3783 88.8051 66.9811C89.2023 66.5839 89.7408 66.3605 90.3025 66.3599H122.372C122.933 66.3605 123.472 66.5839 123.869 66.9811C124.266 67.3783 124.49 67.9168 124.49 68.4785V69.5331C124.49 70.0948 124.266 70.6333 123.869 71.0305C123.472 71.4277 122.933 71.6511 122.372 71.6517Z" fill="#F0F0F0"/>
<path d="M123.976 60.5281H91.9067C91.3169 60.5274 90.7515 60.2928 90.3344 59.8758C89.9174 59.4587 89.6828 58.8933 89.6821 58.3035V57.249C89.6828 56.6592 89.9174 56.0937 90.3344 55.6767C90.7515 55.2596 91.3169 55.0251 91.9067 55.0244H123.976C124.566 55.0251 125.131 55.2596 125.548 55.6767C125.965 56.0937 126.2 56.6592 126.2 57.249V58.3035C126.2 58.8933 125.965 59.4587 125.548 59.8758C125.131 60.2928 124.566 60.5274 123.976 60.5281ZM91.9067 55.4481C91.4293 55.4486 90.9715 55.6385 90.6339 55.9762C90.2963 56.3138 90.1064 56.7715 90.1059 57.249V58.3035C90.1064 58.781 90.2963 59.2387 90.6339 59.5763C90.9715 59.9139 91.4293 60.1038 91.9067 60.1044H123.976C124.453 60.1038 124.911 59.9139 125.249 59.5763C125.586 59.2387 125.776 58.781 125.777 58.3035V57.249C125.776 56.7715 125.586 56.3138 125.249 55.9762C124.911 55.6385 124.453 55.4486 123.976 55.4481H91.9067Z" fill="#3F3D56"/>
<path d="M123.976 69.6186H91.9067C91.3169 69.6179 90.7515 69.3834 90.3344 68.9663C89.9174 68.5493 89.6828 67.9838 89.6821 67.394V66.3395C89.6828 65.7497 89.9174 65.1842 90.3344 64.7672C90.7515 64.3502 91.3169 64.1156 91.9067 64.1149H123.976C124.566 64.1156 125.131 64.3502 125.548 64.7672C125.965 65.1842 126.2 65.7497 126.2 66.3395V67.394C126.2 67.9838 125.965 68.5493 125.548 68.9663C125.131 69.3834 124.566 69.6179 123.976 69.6186ZM91.9067 64.5386C91.4293 64.5392 90.9715 64.7291 90.6339 65.0667C90.2963 65.4043 90.1064 65.862 90.1059 66.3395V67.394C90.1064 67.8715 90.2963 68.3292 90.6339 68.6668C90.9715 69.0045 91.4293 69.1944 91.9067 69.1949H123.976C124.453 69.1944 124.911 69.0045 125.249 68.6668C125.586 68.3292 125.776 67.8715 125.777 67.394V66.3395C125.776 65.862 125.586 65.4043 125.249 65.0667C124.911 64.7291 124.453 64.5392 123.976 64.5386H91.9067Z" fill="#3F3D56"/>
<path d="M133.721 13.7729V34.1945C130.476 35.0482 127.079 35.1461 123.79 34.4808C120.501 33.8154 117.409 32.4045 114.751 30.3566C112.093 28.3087 109.941 25.6784 108.459 22.6681C106.977 19.6577 106.205 16.3475 106.203 12.9922C106.203 12.3933 106.228 11.8006 106.276 11.2142H118.315C118.892 11.2147 119.461 11.0732 119.971 10.8021C120.48 10.531 120.915 10.1386 121.237 9.65954C121.559 9.18051 121.759 8.62957 121.817 8.05533C121.876 7.48109 121.793 6.90119 121.575 6.36682H126.312C127.285 6.36647 128.248 6.55777 129.147 6.92981C130.046 7.30184 130.863 7.84731 131.551 8.53507C132.239 9.22282 132.785 10.0394 133.157 10.9381C133.529 11.8368 133.721 12.8001 133.721 13.7729Z" fill="#F0F0F0"/>
<path d="M100.856 113.79C100.856 114.22 100.84 114.645 100.805 115.065H89.8272C88.8546 115.065 87.8915 114.874 86.9929 114.502C86.0943 114.129 85.2778 113.584 84.5901 112.896C83.9023 112.208 83.3568 111.392 82.9846 110.493C82.6125 109.595 82.421 108.632 82.421 107.659V97.6168C84.7222 97.3175 87.0607 97.5121 89.2808 98.1877C91.5008 98.8632 93.5513 100.004 95.2958 101.535C97.0402 103.065 98.4383 104.95 99.3971 107.063C100.356 109.176 100.853 111.469 100.856 113.79Z" fill="#088F8F"/>
<path d="M12.3139 96.1692C12.6223 96.3049 12.972 96.3127 13.2862 96.1909C13.6004 96.069 13.8535 95.8276 13.9899 95.5194L23.8796 73.1055C24.106 72.5925 24.1751 72.024 24.0783 71.4718C23.9816 70.9195 23.7232 70.4084 23.3359 70.003C22.9486 69.5976 22.4498 69.3162 21.9026 69.1943C21.3553 69.0724 20.7842 69.1155 20.2615 69.3182C19.6576 69.5488 19.1522 69.9816 18.8314 70.5428C18.7803 70.6316 18.7341 70.7231 18.6927 70.8168L8.80304 93.2307C8.73563 93.3835 8.69898 93.548 8.69516 93.7149C8.69134 93.8818 8.72043 94.0478 8.78078 94.2035C8.84113 94.3591 8.93155 94.5013 9.04687 94.622C9.1622 94.7428 9.30016 94.8396 9.4529 94.9069L12.3139 96.1692Z" fill="#088F8F"/>
<path d="M23.4736 82.3074L13.6914 80.1335L16.1126 73.7284C16.5251 72.1629 17.4849 70.7971 18.8182 69.8787C20.1514 68.9602 21.7696 68.5501 23.3793 68.7225L23.4736 68.733L23.4736 82.3074Z" fill="#2F2E41"/>
<path d="M43.232 96.4898C42.9443 96.4893 42.6629 96.4055 42.4218 96.2484C42.1807 96.0914 41.9903 95.8679 41.8736 95.6049L31.9839 73.1909C31.6694 72.4778 31.6402 71.6712 31.9022 70.9371C32.1643 70.2031 32.6977 69.5974 33.3927 69.2446C34.0878 68.8919 34.8916 68.8189 35.6388 69.0408C36.386 69.2626 37.0197 69.7624 37.4096 70.4373C37.4644 70.5326 37.5141 70.6307 37.5585 70.7313L47.4482 93.1453C47.6069 93.5052 47.6163 93.9133 47.4741 94.2801C47.3319 94.6468 47.0498 94.942 46.69 95.1008L43.7321 96.4058L43.7306 96.4025C43.5707 96.4602 43.402 96.4897 43.232 96.4898Z" fill="#088F8F"/>
<path d="M29.5519 88.793C29.2149 88.7933 28.8918 88.9274 28.6535 89.1657C28.4152 89.404 28.2811 89.7271 28.2808 90.0641V116.126C28.2811 116.463 28.4152 116.787 28.6535 117.025C28.8918 117.263 29.2149 117.397 29.5519 117.398H32.679C33.016 117.397 33.3391 117.263 33.5774 117.025C33.8157 116.787 33.9498 116.463 33.9502 116.126V90.0641C33.9498 89.7271 33.8157 89.404 33.5774 89.1657C33.3391 88.9274 33.016 88.7933 32.679 88.793H29.5519Z" fill="#088F8F"/>
<path d="M23.3671 88.793C23.0301 88.7933 22.707 88.9274 22.4687 89.1657C22.2304 89.404 22.0963 89.7271 22.0959 90.0641V116.126C22.0963 116.463 22.2304 116.787 22.4687 117.025C22.707 117.263 23.0301 117.397 23.3671 117.398H26.4942C26.8312 117.397 27.1543 117.263 27.3926 117.025C27.631 116.787 27.765 116.463 27.7654 116.126V90.0641C27.765 89.7271 27.631 89.404 27.3926 89.1657C27.1543 88.9274 26.8312 88.7933 26.4942 88.793H23.3671Z" fill="#088F8F"/>
<path d="M27.9297 61.4881C33.8972 61.4881 38.7348 56.6505 38.7348 50.6831C38.7348 44.7156 33.8972 39.878 27.9297 39.878C21.9622 39.878 17.1246 44.7156 17.1246 50.6831C17.1246 56.6505 21.9622 61.4881 27.9297 61.4881Z" fill="#088F8F"/>
<path d="M31.5255 55.2188C32.2259 55.1994 33.0976 55.1751 33.7691 54.6845C33.9691 54.5325 34.1334 54.3385 34.2505 54.1163C34.3676 53.894 34.4347 53.6488 34.4471 53.3979C34.4592 53.2196 34.43 53.0409 34.3616 52.8758C34.2932 52.7106 34.1876 52.5635 34.0529 52.446C33.7022 52.1496 33.19 52.0801 32.6381 52.2423L33.2099 48.0631L32.7901 48.0056L32.1178 52.9188L32.4684 52.7579C32.8748 52.5715 33.4327 52.4766 33.7794 52.7696C33.8646 52.8462 33.9309 52.9414 33.9732 53.0478C34.0156 53.1542 34.0328 53.2689 34.0236 53.383C34.0134 53.5698 33.963 53.7521 33.8759 53.9177C33.7889 54.0832 33.6672 54.228 33.5191 54.3423C32.9965 54.7241 32.3017 54.7733 31.5137 54.7953L31.5255 55.2188Z" fill="#2F2E41"/>
<path d="M37.5681 48.4236H35.286V48.8473H37.5681V48.4236Z" fill="#2F2E41"/>
<path d="M30.3648 48.4236H28.0826V48.8473H30.3648V48.4236Z" fill="#2F2E41"/>
<path d="M38.6359 96.6214L34.7469 68.2316C34.7052 67.9272 34.5546 67.6482 34.3231 67.4462C34.0916 67.2442 33.7947 67.1329 33.4874 67.1329H30.5519C30.5642 67.063 30.5705 66.9921 30.571 66.9211V65.8617C30.571 65.5246 30.437 65.2013 30.1986 64.9629C29.9603 64.7245 29.6369 64.5906 29.2998 64.5906H26.7574C26.4203 64.5906 26.097 64.7245 25.8586 64.9629C25.6202 65.2013 25.4862 65.5246 25.4862 65.8617V66.9211C25.4867 66.9921 25.493 67.063 25.5053 67.1329H22.5698C22.2625 67.1329 21.9657 67.2442 21.7341 67.4462C21.5026 67.6482 21.352 67.9272 21.3103 68.2316L17.4213 96.6214C17.3967 96.8012 17.4108 96.9843 17.4628 97.1582C17.5148 97.3321 17.6035 97.4928 17.7228 97.6296C17.8421 97.7664 17.9893 97.876 18.1546 97.9511C18.3198 98.0263 18.4992 98.0651 18.6807 98.0651H37.3765C37.558 98.0651 37.7374 98.0263 37.9026 97.9511C38.0679 97.876 38.2151 97.7664 38.3344 97.6296C38.4537 97.4928 38.5424 97.3321 38.5944 97.1582C38.6464 96.9843 38.6605 96.8013 38.6359 96.6214Z" fill="#2F2E41"/>
<path d="M32.5837 82.3074V68.733L32.678 68.7225C34.2897 68.5502 35.9097 68.9618 37.2438 69.8824C38.5778 70.803 39.5374 72.1716 39.9482 73.7395L42.3659 80.1335L32.5837 82.3074Z" fill="#2F2E41"/>
<path d="M27.3856 61.8253L19.912 58.9245C18.6899 58.4501 17.461 57.9902 16.2453 57.4995C15.7246 57.3181 15.245 57.0354 14.834 56.6677C14.4762 56.289 14.2323 55.8171 14.1304 55.3061C13.8712 54.2105 13.918 53.0126 13.9365 51.8946C13.9509 50.6714 14.0515 49.4508 14.2377 48.2419C14.5641 45.97 15.3306 43.7837 16.4941 41.8053C18.5901 38.3664 22.2012 35.7791 26.3549 35.9856C28.278 36.0812 30.212 36.7713 31.6408 38.0861C31.7899 38.2642 31.9571 38.4262 32.1398 38.5696C32.2668 38.6173 32.4049 38.6265 32.5372 38.5963C32.7115 38.5851 32.886 38.5765 33.0606 38.5706C33.6666 38.5451 34.2737 38.5705 34.8754 38.6467C35.9719 38.7652 37.0112 39.1967 37.8691 39.8898C38.5831 40.504 39.1641 41.3711 39.2239 42.3347C39.2527 42.7771 39.1796 43.2201 39.0101 43.6297C38.8406 44.0393 38.5793 44.4045 38.2463 44.6971C37.3546 45.4486 36.0825 45.1845 35.0129 45.1278L31.0947 44.9202L29.1095 44.815C28.7008 44.7934 28.702 45.429 29.1095 45.4506L34.386 45.7302C35.2339 45.7751 36.1078 45.8852 36.9564 45.8343C37.6085 45.8048 38.2311 45.5544 38.7219 45.1241C39.1702 44.7123 39.5041 44.1914 39.6912 43.6121C39.8782 43.0328 39.9119 42.415 39.789 41.8188C39.517 40.5184 38.5492 39.4428 37.4147 38.8029C35.8711 37.9321 34.0274 37.8487 32.3002 37.9774L32.5249 38.0705C30.571 35.9734 27.5782 35.088 24.7685 35.3979C21.8019 35.725 19.1634 37.3801 17.2676 39.6431C15.154 42.1663 14.0021 45.3125 13.5544 48.5477C13.3213 50.2945 13.2446 52.0585 13.3251 53.8189C13.3218 54.5952 13.4546 55.3662 13.7175 56.0966C14.0175 56.8076 14.5599 57.3891 15.2483 57.7378C16.0375 58.1188 16.8488 58.452 17.6779 58.7358L20.4314 59.8046L25.8399 61.9038L27.2166 62.4382C27.5982 62.5863 27.7634 61.972 27.3856 61.8253Z" fill="#2F2E41"/>
<path d="M15.6346 40.2262C14.9851 40.2262 14.3502 40.0336 13.8102 39.6727C13.2701 39.3119 12.8492 38.799 12.6007 38.199C12.3521 37.5989 12.2871 36.9386 12.4138 36.3016C12.5405 35.6646 12.8533 35.0795 13.3125 34.6202C13.7718 34.1609 14.3569 33.8482 14.994 33.7215C15.631 33.5947 16.2912 33.6598 16.8913 33.9083C17.4914 34.1569 18.0042 34.5778 18.3651 35.1178C18.7259 35.6579 18.9185 36.2928 18.9185 36.9423C18.9175 37.8129 18.5712 38.6476 17.9556 39.2632C17.34 39.8789 16.5053 40.2252 15.6346 40.2262ZM15.6346 34.294C15.1108 34.294 14.5988 34.4493 14.1633 34.7403C13.7278 35.0313 13.3883 35.4449 13.1879 35.9288C12.9875 36.4127 12.935 36.9452 13.0372 37.4589C13.1394 37.9726 13.3916 38.4445 13.762 38.8149C14.1323 39.1853 14.6042 39.4375 15.118 39.5397C15.6317 39.6419 16.1642 39.5894 16.6481 39.389C17.132 39.1885 17.5456 38.8491 17.8366 38.4136C18.1276 37.9781 18.2829 37.466 18.2829 36.9423C18.2821 36.2401 18.0029 35.567 17.5064 35.0705C17.0099 34.574 16.3367 34.2947 15.6346 34.294Z" fill="#2F2E41"/>
<path d="M70.5296 60.5768L63.4218 55.1405L57.9855 62.2484L65.0933 67.6846L70.5296 60.5768Z" fill="#F0F0F0"/>
<path d="M30.3592 12.0482C31.4822 12.0473 32.5899 12.3094 33.5934 12.8135C34.5969 13.3176 35.4685 14.0497 36.1383 14.9512L40.2887 9.52455L27.8355 0L18.311 12.4532L23.6783 16.5582C24.2154 15.2261 25.1385 14.085 26.3289 13.2814C27.5194 12.4777 28.9229 12.0483 30.3592 12.0482Z" fill="#F0F0F0"/>
<path d="M149.788 117.769H0.211864C0.155674 117.769 0.101786 117.746 0.0620535 117.706C0.0223212 117.667 0 117.613 0 117.557C0 117.5 0.0223212 117.447 0.0620535 117.407C0.101786 117.367 0.155674 117.345 0.211864 117.345H149.788C149.844 117.345 149.898 117.367 149.938 117.407C149.978 117.447 150 117.5 150 117.557C150 117.613 149.978 117.667 149.938 117.706C149.898 117.746 149.844 117.769 149.788 117.769Z" fill="#3F3D56"/>
<path d="M113.281 82.6137H98.0563C97.4946 82.6131 96.956 82.3897 96.5588 81.9925C96.1617 81.5953 95.9383 81.0568 95.9376 80.4951V79.4405C95.9383 78.8788 96.1617 78.3403 96.5588 77.9431C96.956 77.5459 97.4946 77.3225 98.0563 77.3219H113.281C113.843 77.3225 114.381 77.5459 114.779 77.9431C115.176 78.3403 115.399 78.8788 115.4 79.4405V80.4951C115.399 81.0568 115.176 81.5953 114.779 81.9925C114.381 82.3897 113.843 82.6131 113.281 82.6137Z" fill="#088F8F"/>
<path d="M114.885 80.5807H99.6604C99.0706 80.5801 98.5051 80.3455 98.0881 79.9284C97.671 79.5114 97.4365 78.9459 97.4358 78.3562V77.3016C97.4365 76.7118 97.671 76.1464 98.0881 75.7293C98.5051 75.3123 99.0706 75.0777 99.6604 75.077H114.885C115.475 75.0777 116.041 75.3123 116.458 75.7293C116.875 76.1464 117.109 76.7118 117.11 77.3016V78.3562C117.109 78.9459 116.875 79.5114 116.458 79.9284C116.041 80.3455 115.475 80.5801 114.885 80.5807ZM99.6604 75.5007C99.1829 75.5013 98.7252 75.6912 98.3876 76.0288C98.05 76.3664 97.8601 76.8241 97.8595 77.3016V78.3562C97.8601 78.8336 98.05 79.2914 98.3876 79.629C98.7252 79.9666 99.1829 80.1565 99.6604 80.157H114.885C115.363 80.1565 115.821 79.9666 116.158 79.629C116.496 79.2914 116.686 78.8336 116.686 78.3562V77.3016C116.686 76.8241 116.496 76.3664 116.158 76.0288C115.821 75.6912 115.363 75.5013 114.885 75.5007H99.6604Z" fill="#3F3D56"/>
</g>
<defs>
<clipPath id="clip0_1_711">
<rect width="150" height="117.769" fill="white"/>
</clipPath>
</defs>
</svg>
