<svg width="43" height="40" viewBox="0 0 43 40" fill="none" xmlns="http://www.w3.org/2000/svg">
<path d="M13.8048 7.20587C15.0492 7.20587 15.8734 7.61671 16.4648 8.2255C17.086 8.86487 17.5205 9.79772 17.8054 10.9342C18.2987 12.9021 18.2762 15.1586 18.2594 16.8463C18.2565 17.1318 18.2539 17.4011 18.2539 17.6499C18.2539 18.4118 18.2875 19.3179 18.3233 20.2838C18.3378 20.6719 18.3526 21.0698 18.3657 21.4718C18.412 22.8946 18.4393 24.4098 18.3689 25.8857C18.2984 27.3655 18.1312 28.7707 17.8019 29.9792C17.471 31.1943 16.9965 32.1354 16.365 32.7652C14.8854 34.2409 12.614 35.3855 10.3218 35.83C8.00658 36.279 5.90944 35.9747 4.6017 34.8879C4.57566 34.8663 4.48702 34.7723 4.38421 34.5155C4.28445 34.2663 4.19454 33.9217 4.12705 33.4741C3.992 32.5785 3.96351 31.3871 4.04688 29.9781C4.21316 27.1672 4.81517 23.6357 5.75867 20.1743C6.70398 16.7064 7.97436 13.3744 9.44745 10.9342C10.1844 9.71341 10.9463 8.75915 11.7066 8.12019C12.4636 7.48402 13.1617 7.20587 13.8048 7.20587Z" stroke="white" stroke-width="7.34027"/>
<path d="M29.1951 7.2057C27.9508 7.2057 27.1265 7.61644 26.5352 8.22523C25.914 8.8647 25.4795 9.79745 25.1945 10.9339C24.7013 12.902 24.7238 15.1583 24.7406 16.846C24.7435 17.1316 24.7461 17.4009 24.7461 17.6497C24.7461 18.4117 24.7125 19.3177 24.6766 20.2836C24.6622 20.6717 24.6474 21.0695 24.6343 21.4716C24.588 22.8945 24.5607 24.4096 24.631 25.8855C24.7016 27.3652 24.8688 28.7704 25.198 29.979C25.529 31.194 26.0035 32.1353 26.635 32.7651C28.1146 34.2406 30.386 35.3853 32.6782 35.8298C34.9934 36.2788 37.0905 35.9745 38.3983 34.8877C38.4243 34.8661 38.513 34.7721 38.6158 34.5153C38.7156 34.2661 38.8054 33.9214 38.873 33.4738C39.008 32.5782 39.0364 31.3869 38.9531 29.9778C38.7868 27.1669 38.1848 23.6354 37.2413 20.1741C36.296 16.7062 35.0256 13.3742 33.5525 10.9339C32.8156 9.71315 32.0537 8.75898 31.2934 8.12003C30.5364 7.48375 29.8383 7.2057 29.1951 7.2057Z" stroke="white" stroke-width="7.34027"/>
<path d="M21.5 0V14.9265C21.5 18.5294 18.4118 18.5294 18.4118 18.5294" stroke="white" stroke-width="7.34027"/>
<path d="M21.5 0V14.9265C21.5 18.5294 24.5882 18.5294 24.5882 18.5294" stroke="white" stroke-width="7.34027"/>
</svg>
