<svg width="23" height="19" viewBox="0 0 23 19" fill="none" xmlns="http://www.w3.org/2000/svg">
<g opacity="0.2">
<path d="M20.8438 0H2.15625C0.965371 0 0 1.03131 0 2.30353V16.1247C0 17.3969 0.965371 18.4283 2.15625 18.4283H20.8438C22.0346 18.4283 23 17.3969 23 16.1247V2.30353C23 1.03131 22.0346 0 20.8438 0ZM20.8438 2.30353V4.26178C19.8365 5.13803 18.2307 6.50057 14.7978 9.37226C14.0413 10.008 12.5427 11.5353 11.5 11.5175C10.4575 11.5355 8.95837 10.0077 8.20215 9.37226C4.7698 6.501 3.16362 5.13817 2.15625 4.26178V2.30353H20.8438ZM2.15625 16.1247V7.21764C3.18559 8.09351 4.64533 9.32259 6.87026 11.1838C7.85212 12.0095 9.57159 13.8322 11.5 13.8211C13.4189 13.8322 15.1166 12.036 16.1293 11.1842C18.3542 9.32302 19.8144 8.09361 20.8438 7.21769V16.1247H2.15625Z" fill="black"/>
</g>
</svg>
