<svg width="20" height="21" viewBox="0 0 20 21" fill="none" xmlns="http://www.w3.org/2000/svg">
<path d="M19.4296 14.5565L15.0546 12.6253C14.8677 12.5432 14.6599 12.526 14.4627 12.576C14.2654 12.6261 14.0893 12.7408 13.9608 12.9029L12.0233 15.3411C8.98248 13.8644 6.53535 11.3439 5.10165 8.21194L7.46888 6.2163C7.62657 6.0842 7.73818 5.90278 7.78681 5.6995C7.83545 5.49623 7.81846 5.28217 7.73842 5.08973L5.86338 0.583441C5.77554 0.375994 5.62016 0.206621 5.42406 0.104526C5.22796 0.00243225 5.00341 -0.0259838 4.78915 0.0241783L0.726575 0.989811C0.519997 1.03894 0.335688 1.15875 0.203728 1.32967C0.0717689 1.50059 -4.75872e-05 1.71253 2.36575e-08 1.9309C2.36575e-08 12.2511 8.12123 20.5998 18.1253 20.5998C18.3374 20.5999 18.5433 20.526 18.7093 20.3901C18.8753 20.2542 18.9917 20.0643 19.0394 19.8514L19.9769 15.667C20.0253 15.4453 19.9971 15.2131 19.8972 15.0104C19.7973 14.8077 19.632 14.6472 19.4296 14.5565Z" fill="white"/>
</svg>
