<svg width="35" height="35" viewBox="0 0 35 35" fill="none" xmlns="http://www.w3.org/2000/svg">
<path fill-rule="evenodd" clip-rule="evenodd" d="M10.4178 8.82199C11.565 10.0725 13.503 10.6088 17.0547 10.6849C17.2572 8.00251 18.2904 5.88948 19.8194 4.40626C21.5191 2.75771 23.7731 1.94444 26.0092 1.94444C28.2452 1.94444 30.4992 2.75771 32.1988 4.40626C33.9099 6.06594 35 8.51438 35 11.6667V22.3612C35 25.3577 34.501 28.4873 32.9909 30.8981C31.4369 33.3789 28.8702 35 25.0281 35C21.0994 35 18.3638 32.6685 15.8626 30.5104L15.7537 30.4165C13.235 28.2427 10.8881 26.2174 7.55115 25.7641C5.91481 25.7765 4.81328 26.2765 4.04425 26.961C3.24667 27.671 2.7323 28.6467 2.41121 29.6945C2.09073 30.7405 1.97986 31.8036 1.95213 32.6177C1.93838 33.0218 1.94532 33.357 1.95545 33.5884C1.9605 33.704 1.96634 33.7931 1.9707 33.8515C1.97289 33.8806 1.97471 33.902 1.97588 33.9151L1.9771 33.9286L1.97721 33.9296C1.97718 33.9293 1.97714 33.929 1.00995 34.0278C0.0427575 34.1266 0.0427188 34.1261 0.0426702 34.1257L0.0425631 34.1246L0.0422813 34.1218L0.0414936 34.1137L0.039083 34.0874C0.0371385 34.0656 0.0345813 34.0351 0.0316938 33.9967C0.0259285 33.9197 0.0188604 33.8104 0.0128618 33.6735C0.000883978 33.3998 -0.00690345 33.0134 0.00881738 32.5515C0.0400646 31.6339 0.165034 30.388 0.552086 29.1249C0.938525 27.8637 1.60337 26.5304 2.75149 25.5085C3.91835 24.47 5.51085 23.8195 7.61347 23.8195C8.1025 23.8195 8.56323 23.8306 9.00589 23.8412C9.82839 23.861 10.5885 23.8793 11.3512 23.8221C12.4737 23.738 13.3996 23.4934 14.1646 22.92C15.629 21.8225 16.8983 19.202 17.0103 12.6293C13.3946 12.5544 10.7099 12.0168 8.98499 10.1363C8.04815 9.11512 7.46978 7.7786 7.12094 6.12515C6.77337 4.47781 6.64125 2.45485 6.64125 0H8.58569C8.58569 2.40626 8.71723 4.27219 9.02348 5.72381C9.32847 7.16931 9.79397 8.14183 10.4178 8.82199ZM33.0556 19.6784V11.6667C33.0556 8.98562 32.141 7.05906 30.845 5.80208C29.5378 4.53401 27.7824 3.88894 26.0092 3.88894C24.2359 3.88894 22.4806 4.53401 21.1732 5.80208C19.8774 7.05906 18.9628 8.98562 18.9628 11.6667C18.9628 14.3586 18.7895 16.5667 18.4525 18.3704C21.698 16.6161 24.1586 17.8655 26.4757 19.042C28.6221 20.1319 30.6454 21.1593 33.0556 19.6784Z" fill="white"/>
</svg>
