<svg width="35" height="34" viewBox="0 0 35 34" fill="none" xmlns="http://www.w3.org/2000/svg">
<path fill-rule="evenodd" clip-rule="evenodd" d="M15.1183 4.92928C15.8885 5.58898 17.0176 5.61115 17.8131 4.98284L17.8156 4.98083L17.8215 4.97637C17.8313 4.96874 17.8493 4.95506 17.8749 4.93575C17.9263 4.89704 18.0085 4.83648 18.1184 4.75884C18.3389 4.60325 18.6685 4.38116 19.0841 4.13171C19.9242 3.62728 21.0714 3.03737 22.3495 2.64134C24.8874 1.85486 27.5776 1.89327 29.7672 4.43218C31.0881 5.96369 31.6395 7.44472 31.7802 8.89839C31.8825 9.95444 31.7737 11.0584 31.5082 12.23C30.1072 11.2087 28.3816 10.6061 26.5152 10.6061C21.8291 10.6061 18.0303 14.4048 18.0303 19.0909C18.0303 23.7133 21.7265 27.4724 26.3246 27.5737C25.9798 28.5557 25.6677 29.2409 25.341 29.7875C24.9554 30.4324 24.5099 30.951 23.8228 31.5722C23.4764 31.244 23.0384 30.7192 22.4601 29.9758C22.369 29.8587 22.2746 29.7363 22.1772 29.6102C21.5811 28.8382 20.8747 27.9232 20.1547 27.1928C19.3944 26.4216 18.1147 25.3113 16.4434 25.3164C14.7798 25.3215 13.4967 26.4141 12.7206 27.1907C11.9899 27.9217 11.2736 28.8363 10.669 29.6083C10.5706 29.7339 10.4752 29.8558 10.3832 29.9724C9.79289 30.7205 9.34669 31.2475 8.99394 31.5755C7.28498 29.906 6.34285 27.5364 5.25976 23.1274C5.01486 22.1307 4.64079 20.9301 4.2543 19.6903C4.14347 19.3348 4.03168 18.9758 3.9217 18.6178C3.41165 16.9583 2.90521 15.211 2.55807 13.4857C1.82917 9.86301 1.96677 7.09006 3.31874 5.44866C5.11647 3.26604 6.90327 2.2731 8.62357 2.13787C10.3513 2.00195 12.5062 2.69172 15.1183 4.92928ZM28.6487 27.3053C27.5655 30.7356 26.6701 31.9572 24.6988 33.6223C23.4273 34.6962 21.9934 32.8413 20.4843 30.889C19.177 29.1978 17.8133 27.4334 16.4498 27.4376C15.0638 27.4418 13.6781 29.2089 12.3523 30.8995C10.8233 32.8495 9.37395 34.6977 8.09571 33.6223C5.51473 31.4504 4.38285 28.4494 3.19974 23.6334C2.97203 22.7062 2.62553 21.5942 2.2435 20.3678C0.641081 15.2244 -1.58796 8.06942 1.68142 4.1C5.73035 -0.815788 10.7624 -1.59522 16.4984 3.31822C16.4984 3.31822 25.4689 -3.79956 31.3736 3.04681C34.4486 6.61236 34.3208 10.306 33.2538 13.9343C34.3491 15.3635 35 17.1512 35 19.0909C35 23.0401 32.302 26.3591 28.6487 27.3053ZM32.8788 19.0909C32.8788 22.6055 30.0297 25.4546 26.5152 25.4546C23.0006 25.4546 20.1515 22.6055 20.1515 19.0909C20.1515 15.5764 23.0006 12.7273 26.5152 12.7273C30.0297 12.7273 32.8788 15.5764 32.8788 19.0909ZM26.5152 14.8485C25.9294 14.8485 25.4545 15.3233 25.4545 15.9091V18.0303H23.3333C22.7476 18.0303 22.2727 18.5051 22.2727 19.0909C22.2727 19.6767 22.7476 20.1515 23.3333 20.1515H25.4545V22.2727C25.4545 22.8585 25.9294 23.3333 26.5152 23.3333C27.1009 23.3333 27.5758 22.8585 27.5758 22.2727V20.1515H29.697C30.2827 20.1515 30.7576 19.6767 30.7576 19.0909C30.7576 18.5051 30.2827 18.0303 29.697 18.0303H27.5758V15.9091C27.5758 15.3233 27.1009 14.8485 26.5152 14.8485Z" fill="white"/>
</svg>
